<mxfile host="Electron" agent="Mozilla/5.0 (Windows NT 10.0; Win64; x64) AppleWebKit/537.36 (KHTML, like Gecko) draw.io/26.2.2 Chrome/134.0.6998.178 Electron/35.1.2 Safari/537.36" version="26.2.2">
  <diagram name="Page-1" id="ZVw1FJlZxMxKDDlXF-1e">
    <mxGraphModel dx="1866" dy="597" grid="1" gridSize="10" guides="1" tooltips="1" connect="1" arrows="1" fold="1" page="1" pageScale="1" pageWidth="850" pageHeight="1100" math="0" shadow="0">
      <root>
        <mxCell id="0" />
        <mxCell id="1" parent="0" />
        <mxCell id="Yu8lnCaHZ4QMnYBDLK0b-1" value="" style="rounded=0;whiteSpace=wrap;html=1;dashed=1;fillColor=none;labelBackgroundColor=none;strokeColor=light-dark(#6b6b6b, #ededed);" parent="1" vertex="1">
          <mxGeometry x="-840" y="90" width="120" height="530" as="geometry" />
        </mxCell>
        <mxCell id="Yu8lnCaHZ4QMnYBDLK0b-2" value="&lt;b&gt;&lt;font&gt;High Level Architect&amp;nbsp;&lt;/font&gt;&lt;/b&gt;" style="text;html=1;align=center;verticalAlign=middle;whiteSpace=wrap;rounded=0;labelBackgroundColor=none;fontSize=25;" parent="1" vertex="1">
          <mxGeometry x="-493.75" width="290" height="50" as="geometry" />
        </mxCell>
        <mxCell id="Yu8lnCaHZ4QMnYBDLK0b-3" value="&lt;b&gt;Sources&lt;/b&gt;" style="rounded=0;whiteSpace=wrap;html=1;strokeColor=none;labelBackgroundColor=none;" parent="1" vertex="1">
          <mxGeometry x="-810" y="80" width="60" height="20" as="geometry" />
        </mxCell>
        <mxCell id="Yu8lnCaHZ4QMnYBDLK0b-5" value="" style="rounded=0;whiteSpace=wrap;html=1;dashed=1;fillColor=none;labelBackgroundColor=none;" parent="1" vertex="1">
          <mxGeometry x="-650" y="90" width="602.5" height="530" as="geometry" />
        </mxCell>
        <mxCell id="Yu8lnCaHZ4QMnYBDLK0b-7" value="&lt;b&gt;Data Warehouse&lt;/b&gt;" style="rounded=0;whiteSpace=wrap;html=1;strokeColor=none;labelBackgroundColor=none;" parent="1" vertex="1">
          <mxGeometry x="-418.75" y="80" width="140" height="20" as="geometry" />
        </mxCell>
        <mxCell id="1PUv7_I59I0kOnbkevjs-3" value="" style="rounded=0;whiteSpace=wrap;html=1;dashed=1;fillColor=none;labelBackgroundColor=none;" parent="1" vertex="1">
          <mxGeometry x="30" y="90" width="120" height="530" as="geometry" />
        </mxCell>
        <mxCell id="1PUv7_I59I0kOnbkevjs-4" value="&lt;b&gt;Consume&lt;/b&gt;" style="rounded=0;whiteSpace=wrap;html=1;strokeColor=none;labelBackgroundColor=none;" parent="1" vertex="1">
          <mxGeometry x="49.75" y="80" width="80" height="20" as="geometry" />
        </mxCell>
        <mxCell id="1PUv7_I59I0kOnbkevjs-5" value="Bronze Layer" style="rounded=0;whiteSpace=wrap;html=1;labelBorderColor=none;fillColor=#fad7ac;strokeColor=light-dark(#f0f2f3, #32a0ff);fontSize=20;fontStyle=0" parent="1" vertex="1">
          <mxGeometry x="-637.5" y="110" width="160" height="30" as="geometry" />
        </mxCell>
        <mxCell id="1PUv7_I59I0kOnbkevjs-6" value="Bronze Layer" style="rounded=0;whiteSpace=wrap;html=1;labelBorderColor=none;fillColor=none;strokeColor=light-dark(#fad7ac, #c98531);fontSize=20;fontStyle=0;fontColor=none;noLabel=1;" parent="1" vertex="1">
          <mxGeometry x="-637.5" y="150" width="160" height="430" as="geometry" />
        </mxCell>
        <mxCell id="1PUv7_I59I0kOnbkevjs-7" value="Silver Layer" style="rounded=0;whiteSpace=wrap;html=1;labelBorderColor=none;fillColor=#f5f5f5;strokeColor=#666666;fontSize=20;fontStyle=0;gradientColor=#b3b3b3;" parent="1" vertex="1">
          <mxGeometry x="-427.5" y="110" width="160" height="30" as="geometry" />
        </mxCell>
        <mxCell id="1PUv7_I59I0kOnbkevjs-8" value="Bronze Layer" style="rounded=0;whiteSpace=wrap;html=1;labelBorderColor=none;fillColor=none;strokeColor=light-dark(#cfcfcf, #c98531);fontSize=20;fontStyle=0;fontColor=none;noLabel=1;" parent="1" vertex="1">
          <mxGeometry x="-427.5" y="150" width="160" height="430" as="geometry" />
        </mxCell>
        <mxCell id="1PUv7_I59I0kOnbkevjs-9" value="Gold Layer" style="rounded=0;whiteSpace=wrap;html=1;labelBorderColor=none;fillColor=#fff2cc;strokeColor=#d6b656;fontSize=20;fontStyle=0;gradientColor=#ffd966;" parent="1" vertex="1">
          <mxGeometry x="-217.5" y="110" width="160" height="30" as="geometry" />
        </mxCell>
        <mxCell id="1PUv7_I59I0kOnbkevjs-10" value="Bronze Layer" style="rounded=0;whiteSpace=wrap;html=1;labelBorderColor=none;fillColor=none;strokeColor=light-dark(#ffe491, #c98531);fontSize=20;fontStyle=0;fontColor=none;noLabel=1;" parent="1" vertex="1">
          <mxGeometry x="-217.5" y="150" width="160" height="430" as="geometry" />
        </mxCell>
        <mxCell id="1PUv7_I59I0kOnbkevjs-11" value="&lt;b&gt;CRM&lt;/b&gt;" style="image;aspect=fixed;html=1;points=[];align=center;fontSize=12;image=img/lib/azure2/general/Folder_Blank.svg;" parent="1" vertex="1">
          <mxGeometry x="-804.75" y="237.99" width="39" height="31.65" as="geometry" />
        </mxCell>
        <mxCell id="1PUv7_I59I0kOnbkevjs-12" value="" style="image;aspect=fixed;html=1;points=[];align=center;fontSize=12;image=img/lib/azure2/general/File.svg;" parent="1" vertex="1">
          <mxGeometry x="-774.75" y="247.99" width="19.5" height="24.03" as="geometry" />
        </mxCell>
        <mxCell id="1PUv7_I59I0kOnbkevjs-14" value="&lt;b&gt;ERP&lt;/b&gt;" style="image;aspect=fixed;html=1;points=[];align=center;fontSize=12;image=img/lib/azure2/general/Folder_Blank.svg;" parent="1" vertex="1">
          <mxGeometry x="-804.75" y="351" width="39" height="31.65" as="geometry" />
        </mxCell>
        <mxCell id="1PUv7_I59I0kOnbkevjs-15" value="" style="image;aspect=fixed;html=1;points=[];align=center;fontSize=12;image=img/lib/azure2/general/File.svg;" parent="1" vertex="1">
          <mxGeometry x="-774.75" y="364.30999999999995" width="19.5" height="24.03" as="geometry" />
        </mxCell>
        <mxCell id="1PUv7_I59I0kOnbkevjs-16" value="" style="endArrow=none;html=1;rounded=0;exitX=0.167;exitY=0.792;exitDx=0;exitDy=0;exitPerimeter=0;strokeColor=light-dark(#6b6b6b, #ededed);" parent="1" edge="1">
          <mxGeometry width="50" height="50" relative="1" as="geometry">
            <mxPoint x="-828.9000000000001" y="509.76" as="sourcePoint" />
            <mxPoint x="-730" y="510" as="targetPoint" />
          </mxGeometry>
        </mxCell>
        <mxCell id="1PUv7_I59I0kOnbkevjs-17" value="&lt;b&gt;Object Type:&amp;nbsp;&lt;/b&gt;CSV File&lt;div&gt;&lt;br&gt;&lt;/div&gt;&lt;div&gt;&lt;b&gt;Interface&lt;/b&gt;: Files in Folders&lt;/div&gt;" style="text;html=1;align=center;verticalAlign=middle;whiteSpace=wrap;rounded=0;fontSize=10;" parent="1" vertex="1">
          <mxGeometry x="-840" y="520" width="120" height="40" as="geometry" />
        </mxCell>
        <mxCell id="1PUv7_I59I0kOnbkevjs-19" value="" style="html=1;verticalLabelPosition=bottom;align=center;labelBackgroundColor=#ffffff;verticalAlign=top;strokeWidth=2;strokeColor=light-dark(#000000,#424242);shadow=0;dashed=0;shape=mxgraph.ios7.icons.data;fillColor=light-dark(#fad7ac, #ededed);" parent="1" vertex="1">
          <mxGeometry x="-587.5" y="160" width="52" height="69" as="geometry" />
        </mxCell>
        <mxCell id="1PUv7_I59I0kOnbkevjs-20" value="" style="html=1;verticalLabelPosition=bottom;align=center;labelBackgroundColor=#ffffff;verticalAlign=top;strokeWidth=2;strokeColor=light-dark(#000000,#424242);shadow=0;dashed=0;shape=mxgraph.ios7.icons.data;fillColor=light-dark(#ffe390, #ededed);" parent="1" vertex="1">
          <mxGeometry x="-165.5" y="160" width="56" height="70" as="geometry" />
        </mxCell>
        <mxCell id="1PUv7_I59I0kOnbkevjs-21" value="" style="html=1;verticalLabelPosition=bottom;align=center;labelBackgroundColor=#ffffff;verticalAlign=top;strokeWidth=2;strokeColor=light-dark(#000000,#424242);shadow=0;dashed=0;shape=mxgraph.ios7.icons.data;fillColor=light-dark(#cbcbcb, #ededed);" parent="1" vertex="1">
          <mxGeometry x="-376" y="160" width="57" height="69" as="geometry" />
        </mxCell>
        <mxCell id="1PUv7_I59I0kOnbkevjs-23" value="" style="shape=flexArrow;endArrow=classic;html=1;rounded=0;entryX=0.001;entryY=0.434;entryDx=0;entryDy=0;entryPerimeter=0;fillColor=#cce5ff;strokeColor=#36393d;" parent="1" edge="1">
          <mxGeometry width="50" height="50" relative="1" as="geometry">
            <mxPoint x="-710.54" y="336" as="sourcePoint" />
            <mxPoint x="-660" y="336.02" as="targetPoint" />
          </mxGeometry>
        </mxCell>
        <mxCell id="1PUv7_I59I0kOnbkevjs-26" value="" style="shape=flexArrow;endArrow=classic;html=1;rounded=0;entryX=0.001;entryY=0.434;entryDx=0;entryDy=0;entryPerimeter=0;fillColor=#cce5ff;strokeColor=#36393d;" parent="1" edge="1">
          <mxGeometry width="50" height="50" relative="1" as="geometry">
            <mxPoint x="-267.5" y="336" as="sourcePoint" />
            <mxPoint x="-216.5" y="336" as="targetPoint" />
          </mxGeometry>
        </mxCell>
        <mxCell id="1PUv7_I59I0kOnbkevjs-27" value="" style="shape=flexArrow;endArrow=classic;html=1;rounded=0;entryX=0.001;entryY=0.434;entryDx=0;entryDy=0;entryPerimeter=0;fillColor=#cce5ff;strokeColor=#36393d;" parent="1" edge="1">
          <mxGeometry width="50" height="50" relative="1" as="geometry">
            <mxPoint x="-477.5" y="336" as="sourcePoint" />
            <mxPoint x="-426.5" y="336" as="targetPoint" />
          </mxGeometry>
        </mxCell>
        <mxCell id="1PUv7_I59I0kOnbkevjs-28" value="Raw Data" style="text;html=1;align=center;verticalAlign=middle;whiteSpace=wrap;rounded=0;" parent="1" vertex="1">
          <mxGeometry x="-587.5" y="240" width="60" height="30" as="geometry" />
        </mxCell>
        <mxCell id="1PUv7_I59I0kOnbkevjs-29" value="Cleaned, Standardized Data" style="text;html=1;align=center;verticalAlign=middle;whiteSpace=wrap;rounded=0;" parent="1" vertex="1">
          <mxGeometry x="-410" y="240" width="130" height="30" as="geometry" />
        </mxCell>
        <mxCell id="1PUv7_I59I0kOnbkevjs-30" value="Business-Ready Data" style="text;html=1;align=center;verticalAlign=middle;whiteSpace=wrap;rounded=0;" parent="1" vertex="1">
          <mxGeometry x="-200" y="240" width="130" height="30" as="geometry" />
        </mxCell>
        <mxCell id="1PUv7_I59I0kOnbkevjs-31" value="" style="endArrow=none;html=1;rounded=0;exitX=0.125;exitY=0.535;exitDx=0;exitDy=0;exitPerimeter=0;strokeColor=light-dark(#fad7ac, #ededed);" parent="1" edge="1">
          <mxGeometry width="50" height="50" relative="1" as="geometry">
            <mxPoint x="-616.95" y="291.52" as="sourcePoint" />
            <mxPoint x="-498.05" y="291.71000000000004" as="targetPoint" />
          </mxGeometry>
        </mxCell>
        <mxCell id="1PUv7_I59I0kOnbkevjs-32" value="" style="endArrow=none;html=1;rounded=0;exitX=0.125;exitY=0.535;exitDx=0;exitDy=0;exitPerimeter=0;strokeColor=light-dark(#cfcfcf, #ededed);" parent="1" edge="1">
          <mxGeometry width="50" height="50" relative="1" as="geometry">
            <mxPoint x="-411.95" y="291.51" as="sourcePoint" />
            <mxPoint x="-293.05" y="291.75" as="targetPoint" />
          </mxGeometry>
        </mxCell>
        <mxCell id="1PUv7_I59I0kOnbkevjs-33" value="" style="endArrow=none;html=1;rounded=0;exitX=0.125;exitY=0.535;exitDx=0;exitDy=0;exitPerimeter=0;strokeColor=light-dark(#ffe598, #ededed);" parent="1" edge="1">
          <mxGeometry width="50" height="50" relative="1" as="geometry">
            <mxPoint x="-194.45" y="291.51" as="sourcePoint" />
            <mxPoint x="-75.55" y="291.75" as="targetPoint" />
          </mxGeometry>
        </mxCell>
        <mxCell id="1PUv7_I59I0kOnbkevjs-34" value="&lt;b&gt;Object Type: &lt;/b&gt;Tables&lt;div&gt;&lt;br&gt;&lt;div&gt;&lt;div&gt;&lt;b style=&quot;background-color: transparent; color: light-dark(rgb(0, 0, 0), rgb(255, 255, 255));&quot;&gt;Load :&lt;/b&gt;&lt;/div&gt;&lt;div&gt;&lt;ul&gt;&lt;li&gt;Batch Processing&lt;/li&gt;&lt;li&gt;Full Load&lt;/li&gt;&lt;li&gt;Truncate &amp;amp; Insert&lt;/li&gt;&lt;/ul&gt;&lt;div&gt;&lt;b&gt;No transformations&lt;/b&gt;&lt;/div&gt;&lt;/div&gt;&lt;div&gt;&lt;b&gt;&lt;br&gt;&lt;/b&gt;&lt;/div&gt;&lt;div&gt;&lt;b style=&quot;background-color: transparent; color: light-dark(rgb(0, 0, 0), rgb(255, 255, 255));&quot;&gt;Data Model :&lt;/b&gt;&lt;span style=&quot;background-color: transparent; color: light-dark(rgb(0, 0, 0), rgb(255, 255, 255));&quot;&gt; None(as-is)&lt;/span&gt;&lt;/div&gt;&lt;/div&gt;&lt;/div&gt;" style="text;html=1;align=left;verticalAlign=middle;whiteSpace=wrap;rounded=0;fontSize=10;" parent="1" vertex="1">
          <mxGeometry x="-632.5" y="299.33" width="150" height="131.34" as="geometry" />
        </mxCell>
        <mxCell id="1PUv7_I59I0kOnbkevjs-35" value="&lt;b&gt;Object Type: &lt;/b&gt;Tables&lt;div&gt;&lt;b&gt;Load :&lt;/b&gt;&lt;/div&gt;&lt;div&gt;&lt;ul&gt;&lt;li&gt;Batch Processing&lt;/li&gt;&lt;li&gt;Full Load&lt;/li&gt;&lt;li&gt;Truncate &amp;amp; Insert&lt;/li&gt;&lt;/ul&gt;&lt;div&gt;&lt;b&gt;Transformations:&lt;/b&gt;&lt;/div&gt;&lt;/div&gt;&lt;div&gt;&lt;ul&gt;&lt;li&gt;Data Cleaning&lt;/li&gt;&lt;li&gt;Data Standization&lt;/li&gt;&lt;li&gt;Data Normalization&lt;/li&gt;&lt;li&gt;Derived Columns&lt;/li&gt;&lt;li&gt;Data Enrichment&lt;/li&gt;&lt;/ul&gt;&lt;/div&gt;&lt;div&gt;&lt;b style=&quot;background-color: transparent; color: light-dark(rgb(0, 0, 0), rgb(255, 255, 255));&quot;&gt;Data Model :&lt;/b&gt;&lt;span style=&quot;background-color: transparent; color: light-dark(rgb(0, 0, 0), rgb(255, 255, 255));&quot;&gt; None(as-is)&lt;/span&gt;&lt;/div&gt;" style="text;html=1;align=left;verticalAlign=middle;whiteSpace=wrap;rounded=0;fontSize=10;" parent="1" vertex="1">
          <mxGeometry x="-422.5" y="299.33" width="155" height="190" as="geometry" />
        </mxCell>
        <mxCell id="1PUv7_I59I0kOnbkevjs-36" value="&lt;b&gt;Object Type: &lt;/b&gt;Views&lt;div&gt;&lt;b&gt;&lt;br&gt;&lt;/b&gt;&lt;/div&gt;&lt;div&gt;&lt;b&gt;No Load&lt;/b&gt;&lt;/div&gt;&lt;div&gt;&lt;b&gt;&lt;br&gt;&lt;/b&gt;&lt;div&gt;&lt;div&gt;&lt;b&gt;Transformations:&lt;/b&gt;&lt;/div&gt;&lt;/div&gt;&lt;div&gt;&lt;ul&gt;&lt;li&gt;Data Integrations&lt;/li&gt;&lt;li&gt;&lt;span style=&quot;background-color: transparent; color: light-dark(rgb(0, 0, 0), rgb(255, 255, 255));&quot;&gt;Aggregations&lt;/span&gt;&lt;/li&gt;&lt;li&gt;&lt;span style=&quot;background-color: transparent; color: light-dark(rgb(0, 0, 0), rgb(255, 255, 255));&quot;&gt;Business Logics&lt;/span&gt;&lt;/li&gt;&lt;/ul&gt;&lt;b style=&quot;background-color: transparent; color: light-dark(rgb(0, 0, 0), rgb(255, 255, 255));&quot;&gt;Data Model :&lt;/b&gt;&lt;span style=&quot;background-color: transparent; color: light-dark(rgb(0, 0, 0), rgb(255, 255, 255));&quot;&gt;&amp;nbsp;&lt;/span&gt;&lt;/div&gt;&lt;/div&gt;&lt;div&gt;&lt;ul&gt;&lt;li&gt;&lt;span style=&quot;background-color: transparent; color: light-dark(rgb(0, 0, 0), rgb(255, 255, 255));&quot;&gt;Star Schema&lt;/span&gt;&lt;/li&gt;&lt;li&gt;&lt;span style=&quot;background-color: transparent; color: light-dark(rgb(0, 0, 0), rgb(255, 255, 255));&quot;&gt;Flat Table&lt;/span&gt;&lt;/li&gt;&lt;li&gt;&lt;span style=&quot;background-color: transparent; color: light-dark(rgb(0, 0, 0), rgb(255, 255, 255));&quot;&gt;Aggregated Table&lt;/span&gt;&lt;/li&gt;&lt;/ul&gt;&lt;/div&gt;" style="text;html=1;align=left;verticalAlign=middle;whiteSpace=wrap;rounded=0;fontSize=10;" parent="1" vertex="1">
          <mxGeometry x="-212.5" y="299.33" width="155" height="190" as="geometry" />
        </mxCell>
        <mxCell id="1PUv7_I59I0kOnbkevjs-40" value="&lt;b&gt;BI Reporting&lt;/b&gt;" style="image;aspect=fixed;html=1;points=[];align=center;fontSize=12;image=img/lib/azure2/analytics/Power_BI_Embedded.svg;" parent="1" vertex="1">
          <mxGeometry x="69.25" y="140" width="51" height="68" as="geometry" />
        </mxCell>
        <mxCell id="1PUv7_I59I0kOnbkevjs-42" value="&lt;div&gt;&lt;span style=&quot;background-color: transparent; color: light-dark(rgb(0, 0, 0), rgb(255, 255, 255));&quot;&gt;&lt;b&gt;Excel&lt;/b&gt;&lt;/span&gt;&lt;/div&gt;" style="sketch=0;pointerEvents=1;shadow=0;dashed=0;html=1;strokeColor=none;fillColor=#505050;labelPosition=center;verticalLabelPosition=bottom;verticalAlign=top;outlineConnect=0;align=center;shape=mxgraph.office.services.excel_services;" parent="1" vertex="1">
          <mxGeometry x="69.75" y="312" width="60" height="49" as="geometry" />
        </mxCell>
        <mxCell id="1PUv7_I59I0kOnbkevjs-43" value="&lt;div&gt;&lt;br&gt;&lt;/div&gt;&lt;div&gt;&lt;br&gt;&lt;/div&gt;&lt;div&gt;&lt;br&gt;&lt;/div&gt;&lt;div&gt;&lt;br&gt;&lt;/div&gt;&lt;div&gt;&lt;br&gt;&lt;/div&gt;&lt;div&gt;&lt;br&gt;&lt;/div&gt;&lt;b&gt;Machine Learning&lt;/b&gt;" style="points=[];aspect=fixed;html=1;align=center;shadow=0;dashed=0;fillColor=#FF6A00;strokeColor=none;shape=mxgraph.alibaba_cloud.machine_learning;" parent="1" vertex="1">
          <mxGeometry x="69.75" y="470" width="49.8" height="50.099999999999994" as="geometry" />
        </mxCell>
        <mxCell id="XAOMRcPCSdR6d4-hSIPE-3" value="" style="shape=flexArrow;endArrow=classic;html=1;rounded=0;entryX=0.001;entryY=0.434;entryDx=0;entryDy=0;entryPerimeter=0;fillColor=#cce5ff;strokeColor=#36393d;" edge="1" parent="1">
          <mxGeometry width="50" height="50" relative="1" as="geometry">
            <mxPoint x="-30" y="336" as="sourcePoint" />
            <mxPoint x="21" y="336" as="targetPoint" />
          </mxGeometry>
        </mxCell>
      </root>
    </mxGraphModel>
  </diagram>
</mxfile>
